<svg aria-hidden="true" style="position: absolute; width: 0; height: 0; overflow: hidden;" version="1.1" xmlns="http://www.w3.org/2000/svg" xmlns:xlink="http://www.w3.org/1999/xlink">
<defs>
<symbol id="search" viewBox="0 0 32 32">
<path fill="none" stroke="#fff" style="stroke: var(--color1, #fff)" stroke-linejoin="round" stroke-linecap="round" stroke-miterlimit="4" stroke-width="2.6667" d="M14.667 25.333c5.891 0 10.667-4.776 10.667-10.667s-4.776-10.667-10.667-10.667c-5.891 0-10.667 4.776-10.667 10.667s4.776 10.667 10.667 10.667z"></path>
<path fill="none" stroke="#fff" style="stroke: var(--color1, #fff)" stroke-linejoin="round" stroke-linecap="round" stroke-miterlimit="4" stroke-width="2.6667" d="M28 28.001l-5.8-5.8"></path>
</symbol>
<symbol id="sing-in" viewBox="0 0 32 32">
<path d="M16 0c2.122 0 4.157 0.843 5.657 2.343s2.343 3.535 2.343 5.657-0.843 4.157-2.343 5.657c-1.5 1.5-3.535 2.343-5.657 2.343s-4.157-0.843-5.657-2.343c-1.5-1.5-2.343-3.535-2.343-5.657s0.843-4.157 2.343-5.657c1.5-1.5 3.535-2.343 5.657-2.343v0zM16 20c8.84 0 16 3.58 16 8v4h-32v-4c0-4.42 7.16-8 16-8z"></path>
</symbol>
<symbol id="circle-slice" viewBox="0 0 32 32">
<path d="M16 6.667c5.16 0 9.333 4.173 9.333 9.333s-4.173 9.333-9.333 9.333c-5.16 0-9.333-4.173-9.333-9.333s4.173-9.333 9.333-9.333zM16 2.667c7.333 0 13.333 6 13.333 13.333s-6 13.333-13.333 13.333c-7.333 0-13.333-6-13.333-13.333s6-13.333 13.333-13.333zM16 5.333c-5.893 0-10.667 4.773-10.667 10.667s4.773 10.667 10.667 10.667c5.893 0 10.667-4.773 10.667-10.667s-4.773-10.667-10.667-10.667z"></path>
</symbol>
<symbol id="sun" viewBox="0 0 32 32">
<path d="M16 5.707c0.236 0 0.462-0.094 0.629-0.26s0.26-0.393 0.26-0.629v-3.12c0-0.236-0.094-0.462-0.26-0.629s-0.393-0.26-0.629-0.26c-0.236 0-0.462 0.094-0.629 0.26s-0.26 0.393-0.26 0.629v3.12c0 0.236 0.094 0.462 0.26 0.629s0.393 0.26 0.629 0.26z"></path>
<path d="M16 26.293c-0.236 0-0.462 0.094-0.629 0.26s-0.26 0.393-0.26 0.629v3.12c0 0.236 0.094 0.462 0.26 0.629s0.393 0.26 0.629 0.26c0.236 0 0.462-0.094 0.629-0.26s0.26-0.393 0.26-0.629v-3.12c0-0.236-0.094-0.462-0.26-0.629s-0.393-0.26-0.629-0.26z"></path>
<path d="M7.467 8.72c0.17 0.146 0.389 0.222 0.612 0.213s0.436-0.101 0.594-0.26c0.158-0.158 0.251-0.371 0.26-0.594s-0.067-0.442-0.213-0.612l-2.204-2.204c-0.17-0.146-0.389-0.222-0.612-0.213s-0.436 0.101-0.594 0.26c-0.158 0.158-0.251 0.37-0.26 0.594s0.067 0.442 0.213 0.612l2.204 2.204z"></path>
<path d="M24.533 23.28c-0.17-0.146-0.389-0.222-0.612-0.213s-0.436 0.101-0.594 0.26c-0.158 0.158-0.251 0.371-0.26 0.594s0.067 0.442 0.213 0.612l2.204 2.204c0.17 0.146 0.389 0.222 0.613 0.213s0.436-0.101 0.594-0.26c0.158-0.158 0.251-0.371 0.26-0.594s-0.067-0.442-0.213-0.613l-2.204-2.204z"></path>
<path d="M5.707 16c0-0.236-0.094-0.462-0.26-0.629s-0.393-0.26-0.629-0.26h-3.12c-0.236 0-0.462 0.094-0.629 0.26s-0.26 0.393-0.26 0.629c0 0.236 0.094 0.462 0.26 0.629s0.393 0.26 0.629 0.26h3.12c0.236 0 0.462-0.094 0.629-0.26s0.26-0.393 0.26-0.629z"></path>
<path d="M30.302 15.111h-3.12c-0.236 0-0.462 0.094-0.629 0.26s-0.26 0.393-0.26 0.629 0.094 0.462 0.26 0.629c0.167 0.167 0.393 0.26 0.629 0.26h3.12c0.236 0 0.462-0.094 0.629-0.26s0.26-0.393 0.26-0.629-0.094-0.462-0.26-0.629c-0.167-0.167-0.393-0.26-0.629-0.26z"></path>
<path d="M7.467 23.28l-2.204 2.204c-0.146 0.17-0.222 0.389-0.213 0.613s0.101 0.436 0.26 0.594 0.37 0.251 0.594 0.26c0.224 0.009 0.442-0.067 0.612-0.213l2.204-2.204c0.146-0.17 0.222-0.389 0.213-0.612s-0.101-0.436-0.26-0.594c-0.158-0.158-0.371-0.251-0.594-0.26s-0.442 0.067-0.612 0.213z"></path>
<path d="M24.533 8.72l2.204-2.204c0.146-0.17 0.222-0.389 0.213-0.612s-0.101-0.436-0.26-0.594-0.37-0.251-0.594-0.26c-0.224-0.009-0.442 0.067-0.613 0.213l-2.204 2.204c-0.146 0.17-0.222 0.389-0.213 0.613s0.101 0.436 0.26 0.594 0.37 0.251 0.594 0.26c0.224 0.009 0.442-0.067 0.612-0.213z"></path>
<path d="M16 24.889c4.909 0 8.889-3.98 8.889-8.889s-3.98-8.889-8.889-8.889c-4.909 0-8.889 3.98-8.889 8.889s3.98 8.889 8.889 8.889z"></path>
</symbol>
<symbol id="moon" viewBox="0 0 30 32">
<path d="M27.657 25.966c-2.977-0.034-5.864-1.030-8.228-2.839s-4.080-4.336-4.89-7.201c-0.81-2.865-0.672-5.915 0.395-8.695s3.004-5.14 5.523-6.728c-1.273-0.331-2.582-0.5-3.897-0.503-4.243 0-8.313 1.686-11.314 4.686s-4.686 7.070-4.686 11.314c0 4.243 1.686 8.313 4.686 11.314s7.070 4.686 11.314 4.686c2.404-0.002 4.776-0.553 6.934-1.611s4.048-2.594 5.523-4.492c-0.452 0.046-0.906 0.069-1.36 0.069v0z"></path>
</symbol>
<symbol id="film" viewBox="0 0 32 32">
<path fill="none"   stroke-linejoin="round" stroke-linecap="round" stroke-miterlimit="4" stroke-width="2.6667" d="M26.427 2.667h-20.853c-1.605 0-2.907 1.301-2.907 2.907v20.853c0 1.605 1.301 2.907 2.907 2.907h20.853c1.605 0 2.907-1.301 2.907-2.907v-20.853c0-1.605-1.301-2.907-2.907-2.907z"></path>
<path fill="none"   stroke-linejoin="round" stroke-linecap="round" stroke-miterlimit="4" stroke-width="2.6667" d="M9.333 2.667v26.667"></path>
<path fill="none"   stroke-linejoin="round" stroke-linecap="round" stroke-miterlimit="4" stroke-width="2.6667" d="M22.667 2.667v26.667"></path>
<path fill="none"   stroke-linejoin="round" stroke-linecap="round" stroke-miterlimit="4" stroke-width="2.6667" d="M2.667 16h26.667"></path>
<path fill="none"   stroke-linejoin="round" stroke-linecap="round" stroke-miterlimit="4" stroke-width="2.6667" d="M2.667 9.333h6.667"></path>
<path fill="none"   stroke-linejoin="round" stroke-linecap="round" stroke-miterlimit="4" stroke-width="2.6667" d="M2.667 22.667h6.667"></path>
<path fill="none"   stroke-linejoin="round" stroke-linecap="round" stroke-miterlimit="4" stroke-width="2.6667" d="M22.667 22.667h6.667"></path>
<path fill="none"   stroke-linejoin="round" stroke-linecap="round" stroke-miterlimit="4" stroke-width="2.6667" d="M22.667 9.333h6.667"></path>
</symbol>
<symbol id="film-card-close" viewBox="0 0 32 32">
<path stroke-linejoin="miter" stroke-linecap="butt" stroke-miterlimit="4" stroke-width="2.1333" d="M8.533 8.533l14.933 14.933"></path>
<path stroke-linejoin="miter" stroke-linecap="butt" stroke-miterlimit="4" stroke-width="2.1333" d="M8.533 23.467l14.933-14.933"></path>
</symbol>
</defs>
</svg>
